# xmcd CD database file
#
# Track frame offsets:
#	150
#	18102
#	36285
#	52795
#	70655
#	86520
#	104125
#	120812
#	140785
#	158884
#	177184
#	209017
#
# Disc length: 4440 seconds
#
# Revision: 0
# Processed by: cddbd v1.5PL3 Copyright (c) Steve Scherf et al.
# Submitted via: Feurio! 1.67 - http://www.feurio.com
#
DISCID=9e11560c
DTITLE=Maria Lucia  - That's Just Me 
DYEAR=1900
DGENRE=Pop
TTITLE0=Everybodys Got A Story   
TTITLE1=Wasnt He Something   
TTITLE2=Tempted   
TTITLE3=Something Worth Leaving Behind   
TTITLE4=Taking Back My Heart   
TTITLE5=Free   
TTITLE6=Should I Lie   
TTITLE7=Found It All In You   
TTITLE8=Two Lonely Souls   
TTITLE9=Runaway   
TTITLE10=I Dont Know 
TTITLE11=Data
EXTD=
EXTT0=
EXTT1=
EXTT2=
EXTT3=
EXTT4=
EXTT5=
EXTT6=
EXTT7=
EXTT8=
EXTT9=
EXTT10=
EXTT11=
PLAYORDER=
